<mxfile host="Electron" agent="Mozilla/5.0 (Windows NT 10.0; Win64; x64) AppleWebKit/537.36 (KHTML, like Gecko) draw.io/24.7.17 Chrome/128.0.6613.36 Electron/32.0.1 Safari/537.36" version="24.7.17" pages="4">
  <diagram name="Level 1" id="11bpEbFdb6PpHGfAYZ3g">
    <mxGraphModel dx="1222" dy="786" grid="1" gridSize="10" guides="1" tooltips="1" connect="1" arrows="1" fold="1" page="1" pageScale="1" pageWidth="850" pageHeight="1100" math="0" shadow="0">
      <root>
        <mxCell id="0" />
        <mxCell id="1" parent="0" />
        <mxCell id="UJBF0lJMGnpCI02Me6Gf-1" value="Legend" style="shape=table;startSize=30;container=1;collapsible=0;childLayout=tableLayout;fontSize=16;align=left;verticalAlign=top;fillColor=none;strokeColor=none;fontColor=#4D4D4D;fontStyle=1;spacingLeft=6;spacing=0;resizable=0;" vertex="1" parent="1">
          <mxGeometry x="660" y="50" width="180" height="210" as="geometry" />
        </mxCell>
        <mxCell id="UJBF0lJMGnpCI02Me6Gf-2" value="" style="shape=tableRow;horizontal=0;startSize=0;swimlaneHead=0;swimlaneBody=0;strokeColor=inherit;top=0;left=0;bottom=0;right=0;collapsible=0;dropTarget=0;fillColor=none;points=[[0,0.5],[1,0.5]];portConstraint=eastwest;fontSize=12;" vertex="1" parent="UJBF0lJMGnpCI02Me6Gf-1">
          <mxGeometry y="30" width="180" height="30" as="geometry" />
        </mxCell>
        <mxCell id="UJBF0lJMGnpCI02Me6Gf-3" value="Person" style="shape=partialRectangle;html=1;whiteSpace=wrap;connectable=0;strokeColor=inherit;overflow=hidden;fillColor=#1E4074;top=0;left=0;bottom=0;right=0;pointerEvents=1;fontSize=12;align=left;fontColor=#FFFFFF;gradientColor=none;spacingLeft=10;spacingRight=4;" vertex="1" parent="UJBF0lJMGnpCI02Me6Gf-2">
          <mxGeometry width="180" height="30" as="geometry">
            <mxRectangle width="180" height="30" as="alternateBounds" />
          </mxGeometry>
        </mxCell>
        <mxCell id="UJBF0lJMGnpCI02Me6Gf-4" value="" style="shape=tableRow;horizontal=0;startSize=0;swimlaneHead=0;swimlaneBody=0;strokeColor=inherit;top=0;left=0;bottom=0;right=0;collapsible=0;dropTarget=0;fillColor=none;points=[[0,0.5],[1,0.5]];portConstraint=eastwest;fontSize=12;" vertex="1" parent="UJBF0lJMGnpCI02Me6Gf-1">
          <mxGeometry y="60" width="180" height="30" as="geometry" />
        </mxCell>
        <mxCell id="UJBF0lJMGnpCI02Me6Gf-5" value="Software System" style="shape=partialRectangle;html=1;whiteSpace=wrap;connectable=0;strokeColor=inherit;overflow=hidden;fillColor=#3162AF;top=0;left=0;bottom=0;right=0;pointerEvents=1;fontSize=12;align=left;fontColor=#FFFFFF;gradientColor=none;spacingLeft=10;spacingRight=4;" vertex="1" parent="UJBF0lJMGnpCI02Me6Gf-4">
          <mxGeometry width="180" height="30" as="geometry">
            <mxRectangle width="180" height="30" as="alternateBounds" />
          </mxGeometry>
        </mxCell>
        <mxCell id="UJBF0lJMGnpCI02Me6Gf-6" value="" style="shape=tableRow;horizontal=0;startSize=0;swimlaneHead=0;swimlaneBody=0;strokeColor=inherit;top=0;left=0;bottom=0;right=0;collapsible=0;dropTarget=0;fillColor=none;points=[[0,0.5],[1,0.5]];portConstraint=eastwest;fontSize=12;" vertex="1" parent="UJBF0lJMGnpCI02Me6Gf-1">
          <mxGeometry y="90" width="180" height="30" as="geometry" />
        </mxCell>
        <mxCell id="UJBF0lJMGnpCI02Me6Gf-7" value="Container" style="shape=partialRectangle;html=1;whiteSpace=wrap;connectable=0;strokeColor=inherit;overflow=hidden;fillColor=#52a2d8;top=0;left=0;bottom=0;right=0;pointerEvents=1;fontSize=12;align=left;fontColor=#FFFFFF;gradientColor=none;spacingLeft=10;spacingRight=4;" vertex="1" parent="UJBF0lJMGnpCI02Me6Gf-6">
          <mxGeometry width="180" height="30" as="geometry">
            <mxRectangle width="180" height="30" as="alternateBounds" />
          </mxGeometry>
        </mxCell>
        <mxCell id="UJBF0lJMGnpCI02Me6Gf-8" value="" style="shape=tableRow;horizontal=0;startSize=0;swimlaneHead=0;swimlaneBody=0;strokeColor=inherit;top=0;left=0;bottom=0;right=0;collapsible=0;dropTarget=0;fillColor=none;points=[[0,0.5],[1,0.5]];portConstraint=eastwest;fontSize=12;" vertex="1" parent="UJBF0lJMGnpCI02Me6Gf-1">
          <mxGeometry y="120" width="180" height="30" as="geometry" />
        </mxCell>
        <mxCell id="UJBF0lJMGnpCI02Me6Gf-9" value="Component" style="shape=partialRectangle;html=1;whiteSpace=wrap;connectable=0;strokeColor=inherit;overflow=hidden;fillColor=#7dbef2;top=0;left=0;bottom=0;right=0;pointerEvents=1;fontSize=12;align=left;fontColor=#FFFFFF;gradientColor=none;spacingLeft=10;spacingRight=4;" vertex="1" parent="UJBF0lJMGnpCI02Me6Gf-8">
          <mxGeometry width="180" height="30" as="geometry">
            <mxRectangle width="180" height="30" as="alternateBounds" />
          </mxGeometry>
        </mxCell>
        <mxCell id="UJBF0lJMGnpCI02Me6Gf-10" value="" style="shape=tableRow;horizontal=0;startSize=0;swimlaneHead=0;swimlaneBody=0;strokeColor=inherit;top=0;left=0;bottom=0;right=0;collapsible=0;dropTarget=0;fillColor=none;points=[[0,0.5],[1,0.5]];portConstraint=eastwest;fontSize=12;" vertex="1" parent="UJBF0lJMGnpCI02Me6Gf-1">
          <mxGeometry y="150" width="180" height="30" as="geometry" />
        </mxCell>
        <mxCell id="UJBF0lJMGnpCI02Me6Gf-11" value="External Person" style="shape=partialRectangle;html=1;whiteSpace=wrap;connectable=0;strokeColor=inherit;overflow=hidden;fillColor=#6b6477;top=0;left=0;bottom=0;right=0;pointerEvents=1;fontSize=12;align=left;fontColor=#FFFFFF;gradientColor=none;spacingLeft=10;spacingRight=4;" vertex="1" parent="UJBF0lJMGnpCI02Me6Gf-10">
          <mxGeometry width="180" height="30" as="geometry">
            <mxRectangle width="180" height="30" as="alternateBounds" />
          </mxGeometry>
        </mxCell>
        <mxCell id="UJBF0lJMGnpCI02Me6Gf-12" value="" style="shape=tableRow;horizontal=0;startSize=0;swimlaneHead=0;swimlaneBody=0;strokeColor=inherit;top=0;left=0;bottom=0;right=0;collapsible=0;dropTarget=0;fillColor=none;points=[[0,0.5],[1,0.5]];portConstraint=eastwest;fontSize=12;" vertex="1" parent="UJBF0lJMGnpCI02Me6Gf-1">
          <mxGeometry y="180" width="180" height="30" as="geometry" />
        </mxCell>
        <mxCell id="UJBF0lJMGnpCI02Me6Gf-13" value="External Software System" style="shape=partialRectangle;html=1;whiteSpace=wrap;connectable=0;strokeColor=inherit;overflow=hidden;fillColor=#8b8496;top=0;left=0;bottom=0;right=0;pointerEvents=1;fontSize=12;align=left;fontColor=#FFFFFF;gradientColor=none;spacingLeft=10;spacingRight=4;" vertex="1" parent="UJBF0lJMGnpCI02Me6Gf-12">
          <mxGeometry width="180" height="30" as="geometry">
            <mxRectangle width="180" height="30" as="alternateBounds" />
          </mxGeometry>
        </mxCell>
        <mxCell id="UJBF0lJMGnpCI02Me6Gf-14" value="C4 Model Level 1 - System Context Diagram" style="text;whiteSpace=wrap;html=1;fontSize=25;" vertex="1" parent="1">
          <mxGeometry x="40" y="30" width="660" height="60" as="geometry" />
        </mxCell>
        <mxCell id="UJBF0lJMGnpCI02Me6Gf-22" value="" style="edgeStyle=orthogonalEdgeStyle;rounded=0;orthogonalLoop=1;jettySize=auto;html=1;entryX=0;entryY=0.561;entryDx=0;entryDy=0;entryPerimeter=0;" edge="1" parent="1" source="UJBF0lJMGnpCI02Me6Gf-15" target="UJBF0lJMGnpCI02Me6Gf-18">
          <mxGeometry relative="1" as="geometry" />
        </mxCell>
        <object placeholders="1" c4Name="Internal Staff" c4Type="Person" c4Description="Inventory Admin" label="&lt;font style=&quot;font-size: 16px&quot;&gt;&lt;b&gt;%c4Name%&lt;/b&gt;&lt;/font&gt;&lt;div&gt;[%c4Type%]&lt;/div&gt;&lt;br&gt;&lt;div&gt;&lt;font style=&quot;font-size: 11px&quot;&gt;&lt;font color=&quot;#cccccc&quot;&gt;%c4Description%&lt;/font&gt;&lt;/div&gt;" id="UJBF0lJMGnpCI02Me6Gf-15">
          <mxCell style="html=1;fontSize=11;dashed=0;whiteSpace=wrap;fillColor=#083F75;strokeColor=#06315C;fontColor=#ffffff;shape=mxgraph.c4.person2;align=center;metaEdit=1;points=[[0.5,0,0],[1,0.5,0],[1,0.75,0],[0.75,1,0],[0.5,1,0],[0.25,1,0],[0,0.75,0],[0,0.5,0]];resizable=0;" vertex="1" parent="1">
            <mxGeometry x="80" y="160" width="200" height="180" as="geometry" />
          </mxCell>
        </object>
        <mxCell id="UJBF0lJMGnpCI02Me6Gf-23" value="" style="edgeStyle=orthogonalEdgeStyle;rounded=0;orthogonalLoop=1;jettySize=auto;html=1;entryX=1;entryY=0.5;entryDx=0;entryDy=0;entryPerimeter=0;" edge="1" parent="1" source="UJBF0lJMGnpCI02Me6Gf-16" target="UJBF0lJMGnpCI02Me6Gf-18">
          <mxGeometry relative="1" as="geometry" />
        </mxCell>
        <object placeholders="1" c4Name="Partners" c4Type="Person" c4Description="Integração com Parceiros" label="&lt;font style=&quot;font-size: 16px&quot;&gt;&lt;b&gt;%c4Name%&lt;/b&gt;&lt;/font&gt;&lt;div&gt;[%c4Type%]&lt;/div&gt;&lt;br&gt;&lt;div&gt;&lt;font style=&quot;font-size: 11px&quot;&gt;&lt;font color=&quot;#cccccc&quot;&gt;%c4Description%&lt;/font&gt;&lt;/div&gt;" id="UJBF0lJMGnpCI02Me6Gf-16">
          <mxCell style="html=1;fontSize=11;dashed=0;whiteSpace=wrap;fillColor=#6C6477;strokeColor=#4D4D4D;fontColor=#ffffff;shape=mxgraph.c4.person2;align=center;metaEdit=1;points=[[0.5,0,0],[1,0.5,0],[1,0.75,0],[0.75,1,0],[0.5,1,0],[0.25,1,0],[0,0.75,0],[0,0.5,0]];resizable=0;" vertex="1" parent="1">
            <mxGeometry x="425" y="160" width="200" height="180" as="geometry" />
          </mxCell>
        </object>
        <object placeholders="1" c4Name="webApiVendasOnline" c4Type="Container" c4Technology=".net Core 8.0" c4Description="Manter os dados dos Produtos" label="&lt;font style=&quot;font-size: 16px&quot;&gt;&lt;b&gt;%c4Name%&lt;/b&gt;&lt;/font&gt;&lt;div&gt;[%c4Type%: %c4Technology%]&lt;/div&gt;&lt;br&gt;&lt;div&gt;&lt;font style=&quot;font-size: 11px&quot;&gt;&lt;font color=&quot;#E6E6E6&quot;&gt;%c4Description%&lt;/font&gt;&lt;/div&gt;" id="UJBF0lJMGnpCI02Me6Gf-18">
          <mxCell style="rounded=1;whiteSpace=wrap;html=1;fontSize=11;labelBackgroundColor=none;fillColor=#23A2D9;fontColor=#ffffff;align=center;arcSize=10;strokeColor=#0E7DAD;metaEdit=1;resizable=0;points=[[0.25,0,0],[0.5,0,0],[0.75,0,0],[1,0.25,0],[1,0.5,0],[1,0.75,0],[0.75,1,0],[0.5,1,0],[0.25,1,0],[0,0.75,0],[0,0.5,0],[0,0.25,0]];" vertex="1" parent="1">
            <mxGeometry x="210" y="520" width="240" height="120" as="geometry" />
          </mxCell>
        </object>
        <object placeholders="1" c4Name="API Rest MVC " c4Type="SystemScopeBoundary" c4Application="webApiVendasOnline" label="&lt;font style=&quot;font-size: 16px&quot;&gt;&lt;b&gt;&lt;div style=&quot;text-align: left&quot;&gt;%c4Name%&lt;/div&gt;&lt;/b&gt;&lt;/font&gt;&lt;div style=&quot;text-align: left&quot;&gt;[%c4Application%]&lt;/div&gt;" id="UJBF0lJMGnpCI02Me6Gf-20">
          <mxCell style="rounded=1;fontSize=11;whiteSpace=wrap;html=1;dashed=1;arcSize=20;fillColor=none;strokeColor=#666666;fontColor=#333333;labelBackgroundColor=none;align=left;verticalAlign=bottom;labelBorderColor=none;spacingTop=0;spacing=10;dashPattern=8 4;metaEdit=1;rotatable=0;perimeter=rectanglePerimeter;noLabel=0;labelPadding=0;allowArrows=0;connectable=0;expand=0;recursiveResize=0;editable=1;pointerEvents=0;absoluteArcSize=1;points=[[0.25,0,0],[0.5,0,0],[0.75,0,0],[1,0.25,0],[1,0.5,0],[1,0.75,0],[0.75,1,0],[0.5,1,0],[0.25,1,0],[0,0.75,0],[0,0.5,0],[0,0.25,0]];" vertex="1" parent="1">
            <mxGeometry x="50" y="100" width="590" height="600" as="geometry" />
          </mxCell>
        </object>
      </root>
    </mxGraphModel>
  </diagram>
  <diagram name="Level 2" id="seO3dKgNhPI5NMghG1gD">
    <mxGraphModel dx="1687" dy="1024" grid="1" gridSize="10" guides="1" tooltips="1" connect="1" arrows="1" fold="1" page="1" pageScale="1" pageWidth="850" pageHeight="1100" math="0" shadow="0">
      <root>
        <mxCell id="IFELL7ucxO3jG8cnJjMZ-0" />
        <mxCell id="IFELL7ucxO3jG8cnJjMZ-1" parent="IFELL7ucxO3jG8cnJjMZ-0" />
        <mxCell id="IFELL7ucxO3jG8cnJjMZ-2" value="Legend" style="shape=table;startSize=30;container=1;collapsible=0;childLayout=tableLayout;fontSize=16;align=left;verticalAlign=top;fillColor=none;strokeColor=none;fontColor=#4D4D4D;fontStyle=1;spacingLeft=6;spacing=0;resizable=0;" vertex="1" parent="IFELL7ucxO3jG8cnJjMZ-1">
          <mxGeometry x="660" y="50" width="180" height="210" as="geometry" />
        </mxCell>
        <mxCell id="IFELL7ucxO3jG8cnJjMZ-3" value="" style="shape=tableRow;horizontal=0;startSize=0;swimlaneHead=0;swimlaneBody=0;strokeColor=inherit;top=0;left=0;bottom=0;right=0;collapsible=0;dropTarget=0;fillColor=none;points=[[0,0.5],[1,0.5]];portConstraint=eastwest;fontSize=12;" vertex="1" parent="IFELL7ucxO3jG8cnJjMZ-2">
          <mxGeometry y="30" width="180" height="30" as="geometry" />
        </mxCell>
        <mxCell id="IFELL7ucxO3jG8cnJjMZ-4" value="Person" style="shape=partialRectangle;html=1;whiteSpace=wrap;connectable=0;strokeColor=inherit;overflow=hidden;fillColor=#1E4074;top=0;left=0;bottom=0;right=0;pointerEvents=1;fontSize=12;align=left;fontColor=#FFFFFF;gradientColor=none;spacingLeft=10;spacingRight=4;" vertex="1" parent="IFELL7ucxO3jG8cnJjMZ-3">
          <mxGeometry width="180" height="30" as="geometry">
            <mxRectangle width="180" height="30" as="alternateBounds" />
          </mxGeometry>
        </mxCell>
        <mxCell id="IFELL7ucxO3jG8cnJjMZ-5" value="" style="shape=tableRow;horizontal=0;startSize=0;swimlaneHead=0;swimlaneBody=0;strokeColor=inherit;top=0;left=0;bottom=0;right=0;collapsible=0;dropTarget=0;fillColor=none;points=[[0,0.5],[1,0.5]];portConstraint=eastwest;fontSize=12;" vertex="1" parent="IFELL7ucxO3jG8cnJjMZ-2">
          <mxGeometry y="60" width="180" height="30" as="geometry" />
        </mxCell>
        <mxCell id="IFELL7ucxO3jG8cnJjMZ-6" value="Software System" style="shape=partialRectangle;html=1;whiteSpace=wrap;connectable=0;strokeColor=inherit;overflow=hidden;fillColor=#3162AF;top=0;left=0;bottom=0;right=0;pointerEvents=1;fontSize=12;align=left;fontColor=#FFFFFF;gradientColor=none;spacingLeft=10;spacingRight=4;" vertex="1" parent="IFELL7ucxO3jG8cnJjMZ-5">
          <mxGeometry width="180" height="30" as="geometry">
            <mxRectangle width="180" height="30" as="alternateBounds" />
          </mxGeometry>
        </mxCell>
        <mxCell id="IFELL7ucxO3jG8cnJjMZ-7" value="" style="shape=tableRow;horizontal=0;startSize=0;swimlaneHead=0;swimlaneBody=0;strokeColor=inherit;top=0;left=0;bottom=0;right=0;collapsible=0;dropTarget=0;fillColor=none;points=[[0,0.5],[1,0.5]];portConstraint=eastwest;fontSize=12;" vertex="1" parent="IFELL7ucxO3jG8cnJjMZ-2">
          <mxGeometry y="90" width="180" height="30" as="geometry" />
        </mxCell>
        <mxCell id="IFELL7ucxO3jG8cnJjMZ-8" value="Container" style="shape=partialRectangle;html=1;whiteSpace=wrap;connectable=0;strokeColor=inherit;overflow=hidden;fillColor=#52a2d8;top=0;left=0;bottom=0;right=0;pointerEvents=1;fontSize=12;align=left;fontColor=#FFFFFF;gradientColor=none;spacingLeft=10;spacingRight=4;" vertex="1" parent="IFELL7ucxO3jG8cnJjMZ-7">
          <mxGeometry width="180" height="30" as="geometry">
            <mxRectangle width="180" height="30" as="alternateBounds" />
          </mxGeometry>
        </mxCell>
        <mxCell id="IFELL7ucxO3jG8cnJjMZ-9" value="" style="shape=tableRow;horizontal=0;startSize=0;swimlaneHead=0;swimlaneBody=0;strokeColor=inherit;top=0;left=0;bottom=0;right=0;collapsible=0;dropTarget=0;fillColor=none;points=[[0,0.5],[1,0.5]];portConstraint=eastwest;fontSize=12;" vertex="1" parent="IFELL7ucxO3jG8cnJjMZ-2">
          <mxGeometry y="120" width="180" height="30" as="geometry" />
        </mxCell>
        <mxCell id="IFELL7ucxO3jG8cnJjMZ-10" value="Component" style="shape=partialRectangle;html=1;whiteSpace=wrap;connectable=0;strokeColor=inherit;overflow=hidden;fillColor=#7dbef2;top=0;left=0;bottom=0;right=0;pointerEvents=1;fontSize=12;align=left;fontColor=#FFFFFF;gradientColor=none;spacingLeft=10;spacingRight=4;" vertex="1" parent="IFELL7ucxO3jG8cnJjMZ-9">
          <mxGeometry width="180" height="30" as="geometry">
            <mxRectangle width="180" height="30" as="alternateBounds" />
          </mxGeometry>
        </mxCell>
        <mxCell id="IFELL7ucxO3jG8cnJjMZ-11" value="" style="shape=tableRow;horizontal=0;startSize=0;swimlaneHead=0;swimlaneBody=0;strokeColor=inherit;top=0;left=0;bottom=0;right=0;collapsible=0;dropTarget=0;fillColor=none;points=[[0,0.5],[1,0.5]];portConstraint=eastwest;fontSize=12;" vertex="1" parent="IFELL7ucxO3jG8cnJjMZ-2">
          <mxGeometry y="150" width="180" height="30" as="geometry" />
        </mxCell>
        <mxCell id="IFELL7ucxO3jG8cnJjMZ-12" value="External Person" style="shape=partialRectangle;html=1;whiteSpace=wrap;connectable=0;strokeColor=inherit;overflow=hidden;fillColor=#6b6477;top=0;left=0;bottom=0;right=0;pointerEvents=1;fontSize=12;align=left;fontColor=#FFFFFF;gradientColor=none;spacingLeft=10;spacingRight=4;" vertex="1" parent="IFELL7ucxO3jG8cnJjMZ-11">
          <mxGeometry width="180" height="30" as="geometry">
            <mxRectangle width="180" height="30" as="alternateBounds" />
          </mxGeometry>
        </mxCell>
        <mxCell id="IFELL7ucxO3jG8cnJjMZ-13" value="" style="shape=tableRow;horizontal=0;startSize=0;swimlaneHead=0;swimlaneBody=0;strokeColor=inherit;top=0;left=0;bottom=0;right=0;collapsible=0;dropTarget=0;fillColor=none;points=[[0,0.5],[1,0.5]];portConstraint=eastwest;fontSize=12;" vertex="1" parent="IFELL7ucxO3jG8cnJjMZ-2">
          <mxGeometry y="180" width="180" height="30" as="geometry" />
        </mxCell>
        <mxCell id="IFELL7ucxO3jG8cnJjMZ-14" value="External Software System" style="shape=partialRectangle;html=1;whiteSpace=wrap;connectable=0;strokeColor=inherit;overflow=hidden;fillColor=#8b8496;top=0;left=0;bottom=0;right=0;pointerEvents=1;fontSize=12;align=left;fontColor=#FFFFFF;gradientColor=none;spacingLeft=10;spacingRight=4;" vertex="1" parent="IFELL7ucxO3jG8cnJjMZ-13">
          <mxGeometry width="180" height="30" as="geometry">
            <mxRectangle width="180" height="30" as="alternateBounds" />
          </mxGeometry>
        </mxCell>
        <mxCell id="IFELL7ucxO3jG8cnJjMZ-15" value="C4 Model Level 2 - Container Diagram" style="text;whiteSpace=wrap;html=1;fontSize=25;" vertex="1" parent="IFELL7ucxO3jG8cnJjMZ-1">
          <mxGeometry x="40" y="30" width="660" height="60" as="geometry" />
        </mxCell>
        <mxCell id="IFELL7ucxO3jG8cnJjMZ-16" value="" style="edgeStyle=orthogonalEdgeStyle;rounded=0;orthogonalLoop=1;jettySize=auto;html=1;" edge="1" parent="IFELL7ucxO3jG8cnJjMZ-1" source="IFELL7ucxO3jG8cnJjMZ-17">
          <mxGeometry relative="1" as="geometry">
            <mxPoint x="180" y="530" as="targetPoint" />
          </mxGeometry>
        </mxCell>
        <mxCell id="lPgtOrQKxzx0S2YuIVRM-1" value="JWT Token" style="edgeLabel;html=1;align=center;verticalAlign=middle;resizable=0;points=[];" vertex="1" connectable="0" parent="IFELL7ucxO3jG8cnJjMZ-16">
          <mxGeometry x="-0.3491" y="4" relative="1" as="geometry">
            <mxPoint as="offset" />
          </mxGeometry>
        </mxCell>
        <object placeholders="1" c4Name="Internal Staff" c4Type="Person" c4Description="Inventory Admin" label="&lt;font style=&quot;font-size: 16px&quot;&gt;&lt;b&gt;%c4Name%&lt;/b&gt;&lt;/font&gt;&lt;div&gt;[%c4Type%]&lt;/div&gt;&lt;br&gt;&lt;div&gt;&lt;font style=&quot;font-size: 11px&quot;&gt;&lt;font color=&quot;#cccccc&quot;&gt;%c4Description%&lt;/font&gt;&lt;/div&gt;" id="IFELL7ucxO3jG8cnJjMZ-17">
          <mxCell style="html=1;fontSize=11;dashed=0;whiteSpace=wrap;fillColor=#083F75;strokeColor=#06315C;fontColor=#ffffff;shape=mxgraph.c4.person2;align=center;metaEdit=1;points=[[0.5,0,0],[1,0.5,0],[1,0.75,0],[0.75,1,0],[0.5,1,0],[0.25,1,0],[0,0.75,0],[0,0.5,0]];resizable=0;" vertex="1" parent="IFELL7ucxO3jG8cnJjMZ-1">
            <mxGeometry x="80" y="160" width="200" height="180" as="geometry" />
          </mxCell>
        </object>
        <mxCell id="IFELL7ucxO3jG8cnJjMZ-18" value="" style="edgeStyle=orthogonalEdgeStyle;rounded=0;orthogonalLoop=1;jettySize=auto;html=1;entryX=0.846;entryY=0.033;entryDx=0;entryDy=0;entryPerimeter=0;" edge="1" parent="IFELL7ucxO3jG8cnJjMZ-1" source="IFELL7ucxO3jG8cnJjMZ-19" target="IFELL7ucxO3jG8cnJjMZ-22">
          <mxGeometry relative="1" as="geometry">
            <Array as="points">
              <mxPoint x="525" y="430" />
              <mxPoint x="303" y="430" />
            </Array>
          </mxGeometry>
        </mxCell>
        <mxCell id="lPgtOrQKxzx0S2YuIVRM-2" value="JWT Token" style="edgeLabel;html=1;align=center;verticalAlign=middle;resizable=0;points=[];" vertex="1" connectable="0" parent="IFELL7ucxO3jG8cnJjMZ-18">
          <mxGeometry x="-0.7307" y="2" relative="1" as="geometry">
            <mxPoint as="offset" />
          </mxGeometry>
        </mxCell>
        <object placeholders="1" c4Name="Partners" c4Type="Person" c4Description="Integração com Parceiros" label="&lt;font style=&quot;font-size: 16px&quot;&gt;&lt;b&gt;%c4Name%&lt;/b&gt;&lt;/font&gt;&lt;div&gt;[%c4Type%]&lt;/div&gt;&lt;br&gt;&lt;div&gt;&lt;font style=&quot;font-size: 11px&quot;&gt;&lt;font color=&quot;#cccccc&quot;&gt;%c4Description%&lt;/font&gt;&lt;/div&gt;" id="IFELL7ucxO3jG8cnJjMZ-19">
          <mxCell style="html=1;fontSize=11;dashed=0;whiteSpace=wrap;fillColor=#6C6477;strokeColor=#4D4D4D;fontColor=#ffffff;shape=mxgraph.c4.person2;align=center;metaEdit=1;points=[[0.5,0,0],[1,0.5,0],[1,0.75,0],[0.75,1,0],[0.5,1,0],[0.25,1,0],[0,0.75,0],[0,0.5,0]];resizable=0;" vertex="1" parent="IFELL7ucxO3jG8cnJjMZ-1">
            <mxGeometry x="425" y="160" width="200" height="180" as="geometry" />
          </mxCell>
        </object>
        <object placeholders="1" c4Name="MongoDB" c4Type="Container" c4Technology="MongoDB Atlas - Azure" c4Description="Repositório de Dados da webApp" label="&lt;font style=&quot;font-size: 16px&quot;&gt;&lt;b&gt;%c4Name%&lt;/b&gt;&lt;/font&gt;&lt;div&gt;[%c4Type%:&amp;nbsp;%c4Technology%]&lt;/div&gt;&lt;br&gt;&lt;div&gt;&lt;font style=&quot;font-size: 11px&quot;&gt;&lt;font color=&quot;#E6E6E6&quot;&gt;%c4Description%&lt;/font&gt;&lt;/div&gt;" id="IFELL7ucxO3jG8cnJjMZ-20">
          <mxCell style="shape=cylinder3;size=15;whiteSpace=wrap;html=1;boundedLbl=1;rounded=0;labelBackgroundColor=none;fillColor=#23A2D9;fontSize=12;fontColor=#ffffff;align=center;strokeColor=#0E7DAD;metaEdit=1;points=[[0.5,0,0],[1,0.25,0],[1,0.5,0],[1,0.75,0],[0.5,1,0],[0,0.75,0],[0,0.5,0],[0,0.25,0]];resizable=0;" vertex="1" parent="IFELL7ucxO3jG8cnJjMZ-1">
            <mxGeometry x="385" y="530" width="240" height="120" as="geometry" />
          </mxCell>
        </object>
        <mxCell id="IFELL7ucxO3jG8cnJjMZ-21" value="" style="edgeStyle=orthogonalEdgeStyle;rounded=0;orthogonalLoop=1;jettySize=auto;html=1;startArrow=block;startFill=1;" edge="1" parent="IFELL7ucxO3jG8cnJjMZ-1" source="IFELL7ucxO3jG8cnJjMZ-22" target="IFELL7ucxO3jG8cnJjMZ-20">
          <mxGeometry relative="1" as="geometry" />
        </mxCell>
        <mxCell id="lPgtOrQKxzx0S2YuIVRM-0" value="tcp" style="edgeLabel;html=1;align=center;verticalAlign=middle;resizable=0;points=[];" vertex="1" connectable="0" parent="IFELL7ucxO3jG8cnJjMZ-21">
          <mxGeometry x="-0.3778" y="-1" relative="1" as="geometry">
            <mxPoint x="6" y="-1" as="offset" />
          </mxGeometry>
        </mxCell>
        <mxCell id="lPgtOrQKxzx0S2YuIVRM-7" value="" style="edgeStyle=orthogonalEdgeStyle;rounded=0;orthogonalLoop=1;jettySize=auto;html=1;startArrow=block;startFill=1;" edge="1" parent="IFELL7ucxO3jG8cnJjMZ-1" source="IFELL7ucxO3jG8cnJjMZ-22" target="lPgtOrQKxzx0S2YuIVRM-6">
          <mxGeometry relative="1" as="geometry" />
        </mxCell>
        <object placeholders="1" c4Name="webApiVendasOnline" c4Type="Container" c4Technology=".net Core 8.0" c4Description="Manter os dados dos Produtos" label="&lt;font style=&quot;font-size: 16px&quot;&gt;&lt;b&gt;%c4Name%&lt;/b&gt;&lt;/font&gt;&lt;div&gt;[%c4Type%: %c4Technology%]&lt;/div&gt;&lt;br&gt;&lt;div&gt;&lt;font style=&quot;font-size: 11px&quot;&gt;&lt;font color=&quot;#E6E6E6&quot;&gt;%c4Description%&lt;/font&gt;&lt;/div&gt;" id="IFELL7ucxO3jG8cnJjMZ-22">
          <mxCell style="rounded=1;whiteSpace=wrap;html=1;fontSize=11;labelBackgroundColor=none;fillColor=#23A2D9;fontColor=#ffffff;align=center;arcSize=10;strokeColor=#0E7DAD;metaEdit=1;resizable=0;points=[[0.25,0,0],[0.5,0,0],[0.75,0,0],[1,0.25,0],[1,0.5,0],[1,0.75,0],[0.75,1,0],[0.5,1,0],[0.25,1,0],[0,0.75,0],[0,0.5,0],[0,0.25,0]];" vertex="1" parent="IFELL7ucxO3jG8cnJjMZ-1">
            <mxGeometry x="100" y="530" width="240" height="120" as="geometry" />
          </mxCell>
        </object>
        <object placeholders="1" c4Name="API Products" c4Type="SystemScopeBoundary" c4Application="POD" label="&lt;font style=&quot;font-size: 16px&quot;&gt;&lt;b&gt;&lt;div style=&quot;text-align: left&quot;&gt;%c4Name%&lt;/div&gt;&lt;/b&gt;&lt;/font&gt;&lt;div style=&quot;text-align: left&quot;&gt;[%c4Application%]&lt;/div&gt;" id="IFELL7ucxO3jG8cnJjMZ-23">
          <mxCell style="rounded=1;fontSize=11;whiteSpace=wrap;html=1;dashed=1;arcSize=20;fillColor=none;strokeColor=#666666;fontColor=#333333;labelBackgroundColor=none;align=left;verticalAlign=bottom;labelBorderColor=none;spacingTop=0;spacing=10;dashPattern=8 4;metaEdit=1;rotatable=0;perimeter=rectanglePerimeter;noLabel=0;labelPadding=0;allowArrows=0;connectable=0;expand=0;recursiveResize=0;editable=1;pointerEvents=0;absoluteArcSize=1;points=[[0.25,0,0],[0.5,0,0],[0.75,0,0],[1,0.25,0],[1,0.5,0],[1,0.75,0],[0.75,1,0],[0.5,1,0],[0.25,1,0],[0,0.75,0],[0,0.5,0],[0,0.25,0]];" vertex="1" parent="IFELL7ucxO3jG8cnJjMZ-1">
            <mxGeometry x="50" y="460" width="590" height="230" as="geometry" />
          </mxCell>
        </object>
        <object placeholders="1" c4Name="Microsoft Azure" c4Type="SystemScopeBoundary" c4Application="Azure" label="&lt;font style=&quot;font-size: 16px&quot;&gt;&lt;b&gt;&lt;div style=&quot;text-align: left&quot;&gt;%c4Name%&lt;/div&gt;&lt;/b&gt;&lt;/font&gt;&lt;div style=&quot;text-align: left&quot;&gt;[%c4Application%]&lt;/div&gt;" id="lPgtOrQKxzx0S2YuIVRM-5">
          <mxCell style="rounded=1;fontSize=11;whiteSpace=wrap;html=1;dashed=1;arcSize=20;fillColor=none;strokeColor=#666666;fontColor=#333333;labelBackgroundColor=none;align=left;verticalAlign=bottom;labelBorderColor=none;spacingTop=0;spacing=10;dashPattern=8 4;metaEdit=1;rotatable=0;perimeter=rectanglePerimeter;noLabel=0;labelPadding=0;allowArrows=0;connectable=0;expand=0;recursiveResize=0;editable=1;pointerEvents=0;absoluteArcSize=1;points=[[0.25,0,0],[0.5,0,0],[0.75,0,0],[1,0.25,0],[1,0.5,0],[1,0.75,0],[0.75,1,0],[0.5,1,0],[0.25,1,0],[0,0.75,0],[0,0.5,0],[0,0.25,0]];" vertex="1" parent="IFELL7ucxO3jG8cnJjMZ-1">
            <mxGeometry x="50" y="710" width="590" height="230" as="geometry" />
          </mxCell>
        </object>
        <object placeholders="1" c4Name="Azure Key Vault" c4Type="Software System" c4Description="Secrets" label="&lt;font style=&quot;font-size: 16px&quot;&gt;&lt;b&gt;%c4Name%&lt;/b&gt;&lt;/font&gt;&lt;div&gt;[%c4Type%]&lt;/div&gt;&lt;br&gt;&lt;div&gt;&lt;font style=&quot;font-size: 11px&quot;&gt;&lt;font color=&quot;#cccccc&quot;&gt;%c4Description%&lt;/font&gt;&lt;/div&gt;" id="lPgtOrQKxzx0S2YuIVRM-6">
          <mxCell style="rounded=1;whiteSpace=wrap;html=1;labelBackgroundColor=none;fillColor=#8C8496;fontColor=#ffffff;align=center;arcSize=10;strokeColor=#736782;metaEdit=1;resizable=0;points=[[0.25,0,0],[0.5,0,0],[0.75,0,0],[1,0.25,0],[1,0.5,0],[1,0.75,0],[0.75,1,0],[0.5,1,0],[0.25,1,0],[0,0.75,0],[0,0.5,0],[0,0.25,0]];" vertex="1" parent="IFELL7ucxO3jG8cnJjMZ-1">
            <mxGeometry x="100" y="750" width="240" height="120" as="geometry" />
          </mxCell>
        </object>
      </root>
    </mxGraphModel>
  </diagram>
  <diagram name="Level3" id="-rTWtVpGPsZTugGv8e7s">
    <mxGraphModel dx="1434" dy="870" grid="1" gridSize="10" guides="1" tooltips="1" connect="1" arrows="1" fold="1" page="1" pageScale="1" pageWidth="850" pageHeight="1100" math="0" shadow="0">
      <root>
        <mxCell id="kdPWPhaHgKJz9AutB2Me-0" />
        <mxCell id="kdPWPhaHgKJz9AutB2Me-1" parent="kdPWPhaHgKJz9AutB2Me-0" />
        <mxCell id="kdPWPhaHgKJz9AutB2Me-2" value="Legend" style="shape=table;startSize=30;container=1;collapsible=0;childLayout=tableLayout;fontSize=16;align=left;verticalAlign=top;fillColor=none;strokeColor=none;fontColor=#4D4D4D;fontStyle=1;spacingLeft=6;spacing=0;resizable=0;" vertex="1" parent="kdPWPhaHgKJz9AutB2Me-1">
          <mxGeometry x="400" y="90" width="180" height="210" as="geometry" />
        </mxCell>
        <mxCell id="kdPWPhaHgKJz9AutB2Me-3" value="" style="shape=tableRow;horizontal=0;startSize=0;swimlaneHead=0;swimlaneBody=0;strokeColor=inherit;top=0;left=0;bottom=0;right=0;collapsible=0;dropTarget=0;fillColor=none;points=[[0,0.5],[1,0.5]];portConstraint=eastwest;fontSize=12;" vertex="1" parent="kdPWPhaHgKJz9AutB2Me-2">
          <mxGeometry y="30" width="180" height="30" as="geometry" />
        </mxCell>
        <mxCell id="kdPWPhaHgKJz9AutB2Me-4" value="Person" style="shape=partialRectangle;html=1;whiteSpace=wrap;connectable=0;strokeColor=inherit;overflow=hidden;fillColor=#1E4074;top=0;left=0;bottom=0;right=0;pointerEvents=1;fontSize=12;align=left;fontColor=#FFFFFF;gradientColor=none;spacingLeft=10;spacingRight=4;" vertex="1" parent="kdPWPhaHgKJz9AutB2Me-3">
          <mxGeometry width="180" height="30" as="geometry">
            <mxRectangle width="180" height="30" as="alternateBounds" />
          </mxGeometry>
        </mxCell>
        <mxCell id="kdPWPhaHgKJz9AutB2Me-5" value="" style="shape=tableRow;horizontal=0;startSize=0;swimlaneHead=0;swimlaneBody=0;strokeColor=inherit;top=0;left=0;bottom=0;right=0;collapsible=0;dropTarget=0;fillColor=none;points=[[0,0.5],[1,0.5]];portConstraint=eastwest;fontSize=12;" vertex="1" parent="kdPWPhaHgKJz9AutB2Me-2">
          <mxGeometry y="60" width="180" height="30" as="geometry" />
        </mxCell>
        <mxCell id="kdPWPhaHgKJz9AutB2Me-6" value="Software System" style="shape=partialRectangle;html=1;whiteSpace=wrap;connectable=0;strokeColor=inherit;overflow=hidden;fillColor=#3162AF;top=0;left=0;bottom=0;right=0;pointerEvents=1;fontSize=12;align=left;fontColor=#FFFFFF;gradientColor=none;spacingLeft=10;spacingRight=4;" vertex="1" parent="kdPWPhaHgKJz9AutB2Me-5">
          <mxGeometry width="180" height="30" as="geometry">
            <mxRectangle width="180" height="30" as="alternateBounds" />
          </mxGeometry>
        </mxCell>
        <mxCell id="kdPWPhaHgKJz9AutB2Me-7" value="" style="shape=tableRow;horizontal=0;startSize=0;swimlaneHead=0;swimlaneBody=0;strokeColor=inherit;top=0;left=0;bottom=0;right=0;collapsible=0;dropTarget=0;fillColor=none;points=[[0,0.5],[1,0.5]];portConstraint=eastwest;fontSize=12;" vertex="1" parent="kdPWPhaHgKJz9AutB2Me-2">
          <mxGeometry y="90" width="180" height="30" as="geometry" />
        </mxCell>
        <mxCell id="kdPWPhaHgKJz9AutB2Me-8" value="Container" style="shape=partialRectangle;html=1;whiteSpace=wrap;connectable=0;strokeColor=inherit;overflow=hidden;fillColor=#52a2d8;top=0;left=0;bottom=0;right=0;pointerEvents=1;fontSize=12;align=left;fontColor=#FFFFFF;gradientColor=none;spacingLeft=10;spacingRight=4;" vertex="1" parent="kdPWPhaHgKJz9AutB2Me-7">
          <mxGeometry width="180" height="30" as="geometry">
            <mxRectangle width="180" height="30" as="alternateBounds" />
          </mxGeometry>
        </mxCell>
        <mxCell id="kdPWPhaHgKJz9AutB2Me-9" value="" style="shape=tableRow;horizontal=0;startSize=0;swimlaneHead=0;swimlaneBody=0;strokeColor=inherit;top=0;left=0;bottom=0;right=0;collapsible=0;dropTarget=0;fillColor=none;points=[[0,0.5],[1,0.5]];portConstraint=eastwest;fontSize=12;" vertex="1" parent="kdPWPhaHgKJz9AutB2Me-2">
          <mxGeometry y="120" width="180" height="30" as="geometry" />
        </mxCell>
        <mxCell id="kdPWPhaHgKJz9AutB2Me-10" value="Component" style="shape=partialRectangle;html=1;whiteSpace=wrap;connectable=0;strokeColor=inherit;overflow=hidden;fillColor=#7dbef2;top=0;left=0;bottom=0;right=0;pointerEvents=1;fontSize=12;align=left;fontColor=#FFFFFF;gradientColor=none;spacingLeft=10;spacingRight=4;" vertex="1" parent="kdPWPhaHgKJz9AutB2Me-9">
          <mxGeometry width="180" height="30" as="geometry">
            <mxRectangle width="180" height="30" as="alternateBounds" />
          </mxGeometry>
        </mxCell>
        <mxCell id="kdPWPhaHgKJz9AutB2Me-11" value="" style="shape=tableRow;horizontal=0;startSize=0;swimlaneHead=0;swimlaneBody=0;strokeColor=inherit;top=0;left=0;bottom=0;right=0;collapsible=0;dropTarget=0;fillColor=none;points=[[0,0.5],[1,0.5]];portConstraint=eastwest;fontSize=12;" vertex="1" parent="kdPWPhaHgKJz9AutB2Me-2">
          <mxGeometry y="150" width="180" height="30" as="geometry" />
        </mxCell>
        <mxCell id="kdPWPhaHgKJz9AutB2Me-12" value="External Person" style="shape=partialRectangle;html=1;whiteSpace=wrap;connectable=0;strokeColor=inherit;overflow=hidden;fillColor=#6b6477;top=0;left=0;bottom=0;right=0;pointerEvents=1;fontSize=12;align=left;fontColor=#FFFFFF;gradientColor=none;spacingLeft=10;spacingRight=4;" vertex="1" parent="kdPWPhaHgKJz9AutB2Me-11">
          <mxGeometry width="180" height="30" as="geometry">
            <mxRectangle width="180" height="30" as="alternateBounds" />
          </mxGeometry>
        </mxCell>
        <mxCell id="kdPWPhaHgKJz9AutB2Me-13" value="" style="shape=tableRow;horizontal=0;startSize=0;swimlaneHead=0;swimlaneBody=0;strokeColor=inherit;top=0;left=0;bottom=0;right=0;collapsible=0;dropTarget=0;fillColor=none;points=[[0,0.5],[1,0.5]];portConstraint=eastwest;fontSize=12;" vertex="1" parent="kdPWPhaHgKJz9AutB2Me-2">
          <mxGeometry y="180" width="180" height="30" as="geometry" />
        </mxCell>
        <mxCell id="kdPWPhaHgKJz9AutB2Me-14" value="External Software System" style="shape=partialRectangle;html=1;whiteSpace=wrap;connectable=0;strokeColor=inherit;overflow=hidden;fillColor=#8b8496;top=0;left=0;bottom=0;right=0;pointerEvents=1;fontSize=12;align=left;fontColor=#FFFFFF;gradientColor=none;spacingLeft=10;spacingRight=4;" vertex="1" parent="kdPWPhaHgKJz9AutB2Me-13">
          <mxGeometry width="180" height="30" as="geometry">
            <mxRectangle width="180" height="30" as="alternateBounds" />
          </mxGeometry>
        </mxCell>
        <mxCell id="kdPWPhaHgKJz9AutB2Me-15" value="C4 Model Level 3 - Component Diagram" style="text;whiteSpace=wrap;html=1;fontSize=25;" vertex="1" parent="kdPWPhaHgKJz9AutB2Me-1">
          <mxGeometry x="40" y="30" width="660" height="60" as="geometry" />
        </mxCell>
        <object placeholders="1" c4Name="MongoDB" c4Type="Container" c4Technology="MongoDB Atlas - Azure" c4Description="Repositório de Dados da webApp" label="&lt;font style=&quot;font-size: 16px&quot;&gt;&lt;b&gt;%c4Name%&lt;/b&gt;&lt;/font&gt;&lt;div&gt;[%c4Type%:&amp;nbsp;%c4Technology%]&lt;/div&gt;&lt;br&gt;&lt;div&gt;&lt;font style=&quot;font-size: 11px&quot;&gt;&lt;font color=&quot;#E6E6E6&quot;&gt;%c4Description%&lt;/font&gt;&lt;/div&gt;" id="kdPWPhaHgKJz9AutB2Me-22">
          <mxCell style="shape=cylinder3;size=15;whiteSpace=wrap;html=1;boundedLbl=1;rounded=0;labelBackgroundColor=none;fillColor=#23A2D9;fontSize=12;fontColor=#ffffff;align=center;strokeColor=#0E7DAD;metaEdit=1;points=[[0.5,0,0],[1,0.25,0],[1,0.5,0],[1,0.75,0],[0.5,1,0],[0,0.75,0],[0,0.5,0],[0,0.25,0]];resizable=0;" vertex="1" parent="kdPWPhaHgKJz9AutB2Me-1">
            <mxGeometry x="50" y="890" width="240" height="120" as="geometry" />
          </mxCell>
        </object>
        <mxCell id="1Cxh2X-Za2cZUWx9na-h-2" style="edgeStyle=orthogonalEdgeStyle;rounded=0;orthogonalLoop=1;jettySize=auto;html=1;" edge="1" parent="kdPWPhaHgKJz9AutB2Me-1" source="1Cxh2X-Za2cZUWx9na-h-0" target="1Cxh2X-Za2cZUWx9na-h-1">
          <mxGeometry relative="1" as="geometry" />
        </mxCell>
        <object placeholders="1" c4Name="webApiVendasOnline" c4Type="Container" c4Technology="C# .net core 8.0" c4Description="Container" label="&lt;font style=&quot;font-size: 16px&quot;&gt;&lt;b&gt;%c4Name%&lt;/b&gt;&lt;/font&gt;&lt;div&gt;[%c4Type%:&amp;nbsp;%c4Technology%]&lt;/div&gt;&lt;br&gt;&lt;div&gt;&lt;font style=&quot;font-size: 11px&quot;&gt;&lt;font color=&quot;#E6E6E6&quot;&gt;%c4Description%&lt;/font&gt;&lt;/div&gt;" id="1Cxh2X-Za2cZUWx9na-h-0">
          <mxCell style="shape=mxgraph.c4.webBrowserContainer2;whiteSpace=wrap;html=1;boundedLbl=1;rounded=0;labelBackgroundColor=none;strokeColor=#118ACD;fillColor=#23A2D9;strokeColor=#118ACD;strokeColor2=#0E7DAD;fontSize=12;fontColor=#ffffff;align=center;metaEdit=1;points=[[0.5,0,0],[1,0.25,0],[1,0.5,0],[1,0.75,0],[0.5,1,0],[0,0.75,0],[0,0.5,0],[0,0.25,0]];resizable=0;" vertex="1" parent="kdPWPhaHgKJz9AutB2Me-1">
            <mxGeometry x="50" y="120" width="240" height="160" as="geometry" />
          </mxCell>
        </object>
        <mxCell id="1Cxh2X-Za2cZUWx9na-h-4" value="" style="edgeStyle=orthogonalEdgeStyle;rounded=0;orthogonalLoop=1;jettySize=auto;html=1;" edge="1" parent="kdPWPhaHgKJz9AutB2Me-1" source="1Cxh2X-Za2cZUWx9na-h-1" target="1Cxh2X-Za2cZUWx9na-h-3">
          <mxGeometry relative="1" as="geometry" />
        </mxCell>
        <object placeholders="1" c4Name="ProductController" c4Type="Component" c4Technology="C# .net core 8.0" c4Description="Description of component role/responsibility." label="&lt;font style=&quot;font-size: 16px&quot;&gt;&lt;b&gt;%c4Name%&lt;/b&gt;&lt;/font&gt;&lt;div&gt;[%c4Type%: %c4Technology%]&lt;/div&gt;&lt;br&gt;&lt;div&gt;&lt;font style=&quot;font-size: 11px&quot;&gt;%c4Description%&lt;/font&gt;&lt;/div&gt;" id="1Cxh2X-Za2cZUWx9na-h-1">
          <mxCell style="rounded=1;whiteSpace=wrap;html=1;labelBackgroundColor=none;fillColor=#63BEF2;fontColor=#ffffff;align=center;arcSize=6;strokeColor=#2086C9;metaEdit=1;resizable=0;points=[[0.25,0,0],[0.5,0,0],[0.75,0,0],[1,0.25,0],[1,0.5,0],[1,0.75,0],[0.75,1,0],[0.5,1,0],[0.25,1,0],[0,0.75,0],[0,0.5,0],[0,0.25,0]];" vertex="1" parent="kdPWPhaHgKJz9AutB2Me-1">
            <mxGeometry x="50" y="330" width="240" height="120" as="geometry" />
          </mxCell>
        </object>
        <mxCell id="1Cxh2X-Za2cZUWx9na-h-6" value="" style="edgeStyle=orthogonalEdgeStyle;rounded=0;orthogonalLoop=1;jettySize=auto;html=1;" edge="1" parent="kdPWPhaHgKJz9AutB2Me-1" source="1Cxh2X-Za2cZUWx9na-h-3" target="1Cxh2X-Za2cZUWx9na-h-5">
          <mxGeometry relative="1" as="geometry" />
        </mxCell>
        <object placeholders="1" c4Name="ProductService" c4Type="Component" c4Technology="C# .net core 8.0" c4Description="Description of component role/responsibility." label="&lt;font style=&quot;font-size: 16px&quot;&gt;&lt;b&gt;%c4Name%&lt;/b&gt;&lt;/font&gt;&lt;div&gt;[%c4Type%: %c4Technology%]&lt;/div&gt;&lt;br&gt;&lt;div&gt;&lt;font style=&quot;font-size: 11px&quot;&gt;%c4Description%&lt;/font&gt;&lt;/div&gt;" id="1Cxh2X-Za2cZUWx9na-h-3">
          <mxCell style="rounded=1;whiteSpace=wrap;html=1;labelBackgroundColor=none;fillColor=#63BEF2;fontColor=#ffffff;align=center;arcSize=6;strokeColor=#2086C9;metaEdit=1;resizable=0;points=[[0.25,0,0],[0.5,0,0],[0.75,0,0],[1,0.25,0],[1,0.5,0],[1,0.75,0],[0.75,1,0],[0.5,1,0],[0.25,1,0],[0,0.75,0],[0,0.5,0],[0,0.25,0]];" vertex="1" parent="kdPWPhaHgKJz9AutB2Me-1">
            <mxGeometry x="50" y="520" width="240" height="120" as="geometry" />
          </mxCell>
        </object>
        <mxCell id="1Cxh2X-Za2cZUWx9na-h-7" value="" style="edgeStyle=orthogonalEdgeStyle;rounded=0;orthogonalLoop=1;jettySize=auto;html=1;" edge="1" parent="kdPWPhaHgKJz9AutB2Me-1" source="1Cxh2X-Za2cZUWx9na-h-5" target="kdPWPhaHgKJz9AutB2Me-22">
          <mxGeometry relative="1" as="geometry" />
        </mxCell>
        <object placeholders="1" c4Name="ProductRepository" c4Type="Component" c4Technology="C# .net core 8.0" c4Description="Description of component role/responsibility." label="&lt;font style=&quot;font-size: 16px&quot;&gt;&lt;b&gt;%c4Name%&lt;/b&gt;&lt;/font&gt;&lt;div&gt;[%c4Type%: %c4Technology%]&lt;/div&gt;&lt;br&gt;&lt;div&gt;&lt;font style=&quot;font-size: 11px&quot;&gt;%c4Description%&lt;/font&gt;&lt;/div&gt;" id="1Cxh2X-Za2cZUWx9na-h-5">
          <mxCell style="rounded=1;whiteSpace=wrap;html=1;labelBackgroundColor=none;fillColor=#63BEF2;fontColor=#ffffff;align=center;arcSize=6;strokeColor=#2086C9;metaEdit=1;resizable=0;points=[[0.25,0,0],[0.5,0,0],[0.75,0,0],[1,0.25,0],[1,0.5,0],[1,0.75,0],[0.75,1,0],[0.5,1,0],[0.25,1,0],[0,0.75,0],[0,0.5,0],[0,0.25,0]];" vertex="1" parent="kdPWPhaHgKJz9AutB2Me-1">
            <mxGeometry x="50" y="700" width="240" height="120" as="geometry" />
          </mxCell>
        </object>
      </root>
    </mxGraphModel>
  </diagram>
  <diagram name="Level4" id="n1GpJA3qPwJ4h1gnfuBA">
    <mxGraphModel dx="3176" dy="2044" grid="1" gridSize="10" guides="1" tooltips="1" connect="1" arrows="1" fold="1" page="1" pageScale="1" pageWidth="850" pageHeight="1100" math="0" shadow="0">
      <root>
        <mxCell id="Qgh0BV6UFdEKHunrjEFM-0" />
        <mxCell id="Qgh0BV6UFdEKHunrjEFM-1" parent="Qgh0BV6UFdEKHunrjEFM-0" />
        <mxCell id="Qgh0BV6UFdEKHunrjEFM-15" value="C4 Model Level 4 - Code Diagram" style="text;whiteSpace=wrap;html=1;fontSize=25;" vertex="1" parent="Qgh0BV6UFdEKHunrjEFM-1">
          <mxGeometry x="40" y="30" width="660" height="60" as="geometry" />
        </mxCell>
        <mxCell id="D7vSViKJl2pDNoAHhaiZ-5" value="&lt;span style=&quot;font-weight: 400; text-align: left;&quot;&gt;ProductController&amp;nbsp;&lt;/span&gt;" style="swimlane;fontStyle=1;align=center;verticalAlign=top;childLayout=stackLayout;horizontal=1;startSize=26;horizontalStack=0;resizeParent=1;resizeParentMax=0;resizeLast=0;collapsible=1;marginBottom=0;whiteSpace=wrap;html=1;" vertex="1" parent="Qgh0BV6UFdEKHunrjEFM-1">
          <mxGeometry x="90" y="120" width="160" height="164" as="geometry" />
        </mxCell>
        <mxCell id="D7vSViKJl2pDNoAHhaiZ-7" value="" style="line;strokeWidth=1;fillColor=none;align=left;verticalAlign=middle;spacingTop=-1;spacingLeft=3;spacingRight=3;rotatable=0;labelPosition=right;points=[];portConstraint=eastwest;strokeColor=inherit;" vertex="1" parent="D7vSViKJl2pDNoAHhaiZ-5">
          <mxGeometry y="26" width="160" height="8" as="geometry" />
        </mxCell>
        <mxCell id="D7vSViKJl2pDNoAHhaiZ-8" value="&lt;div&gt;GetProducts()&amp;nbsp;&lt;br&gt;GetProduct(id)&lt;br&gt;GetProduct(name)&lt;br&gt;CreateProduct()&amp;nbsp;&lt;br&gt;UpdateProduct()&lt;br&gt;DeleteProduct()&lt;br&gt;Count()&lt;br&gt;&lt;br&gt;&lt;/div&gt;" style="text;strokeColor=none;fillColor=none;align=left;verticalAlign=top;spacingLeft=4;spacingRight=4;overflow=hidden;rotatable=0;points=[[0,0.5],[1,0.5]];portConstraint=eastwest;whiteSpace=wrap;html=1;" vertex="1" parent="D7vSViKJl2pDNoAHhaiZ-5">
          <mxGeometry y="34" width="160" height="130" as="geometry" />
        </mxCell>
        <mxCell id="D7vSViKJl2pDNoAHhaiZ-9" value="&lt;div&gt;&lt;br&gt;&lt;/div&gt;" style="text;strokeColor=none;fillColor=none;align=left;verticalAlign=top;spacingLeft=4;spacingRight=4;overflow=hidden;rotatable=0;points=[[0,0.5],[1,0.5]];portConstraint=eastwest;whiteSpace=wrap;html=1;" vertex="1" parent="Qgh0BV6UFdEKHunrjEFM-1">
          <mxGeometry x="90" y="200" width="160" height="90" as="geometry" />
        </mxCell>
        <mxCell id="D7vSViKJl2pDNoAHhaiZ-10" value="&lt;span style=&quot;font-weight: 400; text-align: left;&quot;&gt;ProductService&amp;nbsp;&lt;/span&gt;" style="swimlane;fontStyle=1;align=center;verticalAlign=top;childLayout=stackLayout;horizontal=1;startSize=26;horizontalStack=0;resizeParent=1;resizeParentMax=0;resizeLast=0;collapsible=1;marginBottom=0;whiteSpace=wrap;html=1;" vertex="1" parent="Qgh0BV6UFdEKHunrjEFM-1">
          <mxGeometry x="90" y="340" width="160" height="164" as="geometry" />
        </mxCell>
        <mxCell id="D7vSViKJl2pDNoAHhaiZ-11" value="" style="line;strokeWidth=1;fillColor=none;align=left;verticalAlign=middle;spacingTop=-1;spacingLeft=3;spacingRight=3;rotatable=0;labelPosition=right;points=[];portConstraint=eastwest;strokeColor=inherit;" vertex="1" parent="D7vSViKJl2pDNoAHhaiZ-10">
          <mxGeometry y="26" width="160" height="8" as="geometry" />
        </mxCell>
        <mxCell id="D7vSViKJl2pDNoAHhaiZ-12" value="&lt;div&gt;&lt;div&gt;&lt;br&gt;&lt;/div&gt;&lt;div&gt;GetAllProducts()&lt;/div&gt;&lt;div&gt;GetProductById()&lt;/div&gt;&lt;div&gt;&lt;div&gt;GetProductByName()&lt;/div&gt;&lt;/div&gt;&lt;div&gt;&lt;span style=&quot;background-color: initial;&quot;&gt;CreateProduct()&lt;/span&gt;&lt;br&gt;&lt;/div&gt;&lt;div&gt;UpdateProduct()&lt;/div&gt;&lt;div&gt;DeleteProduct()&lt;/div&gt;&lt;/div&gt;&lt;div&gt;CountAll()&lt;/div&gt;&lt;div&gt;&lt;br&gt;&lt;/div&gt;&lt;div&gt;GetProducts()&amp;nbsp;&lt;br&gt;GetProduct(id)&lt;br&gt;GetProduct(name)&lt;br&gt;CreateProduct()&amp;nbsp;&lt;br&gt;UpdateProduct()&lt;br&gt;DeleteProduct()&lt;br&gt;Count()&lt;br&gt;&lt;br&gt;&lt;/div&gt;" style="text;strokeColor=none;fillColor=none;align=left;verticalAlign=top;spacingLeft=4;spacingRight=4;overflow=hidden;rotatable=0;points=[[0,0.5],[1,0.5]];portConstraint=eastwest;whiteSpace=wrap;html=1;" vertex="1" parent="D7vSViKJl2pDNoAHhaiZ-10">
          <mxGeometry y="34" width="160" height="130" as="geometry" />
        </mxCell>
        <mxCell id="D7vSViKJl2pDNoAHhaiZ-13" value="&lt;div&gt;&lt;br&gt;&lt;/div&gt;" style="text;strokeColor=none;fillColor=none;align=left;verticalAlign=top;spacingLeft=4;spacingRight=4;overflow=hidden;rotatable=0;points=[[0,0.5],[1,0.5]];portConstraint=eastwest;whiteSpace=wrap;html=1;" vertex="1" parent="Qgh0BV6UFdEKHunrjEFM-1">
          <mxGeometry x="90" y="420" width="160" height="90" as="geometry" />
        </mxCell>
        <mxCell id="D7vSViKJl2pDNoAHhaiZ-14" value="&lt;span style=&quot;font-weight: 400; text-align: left;&quot;&gt;ProductRepository&amp;nbsp;&lt;/span&gt;" style="swimlane;fontStyle=1;align=center;verticalAlign=top;childLayout=stackLayout;horizontal=1;startSize=26;horizontalStack=0;resizeParent=1;resizeParentMax=0;resizeLast=0;collapsible=1;marginBottom=0;whiteSpace=wrap;html=1;" vertex="1" parent="Qgh0BV6UFdEKHunrjEFM-1">
          <mxGeometry x="90" y="570" width="160" height="164" as="geometry" />
        </mxCell>
        <mxCell id="D7vSViKJl2pDNoAHhaiZ-15" value="" style="line;strokeWidth=1;fillColor=none;align=left;verticalAlign=middle;spacingTop=-1;spacingLeft=3;spacingRight=3;rotatable=0;labelPosition=right;points=[];portConstraint=eastwest;strokeColor=inherit;" vertex="1" parent="D7vSViKJl2pDNoAHhaiZ-14">
          <mxGeometry y="26" width="160" height="8" as="geometry" />
        </mxCell>
        <mxCell id="D7vSViKJl2pDNoAHhaiZ-16" value="&lt;div&gt;&lt;div&gt;&lt;br&gt;&lt;/div&gt;&lt;div&gt;GetAllProducts()&lt;/div&gt;&lt;div&gt;GetProductById()&lt;/div&gt;&lt;div&gt;&lt;div&gt;GetProductByName()&lt;/div&gt;&lt;/div&gt;&lt;div&gt;&lt;span style=&quot;background-color: initial;&quot;&gt;CreateProduct()&lt;/span&gt;&lt;br&gt;&lt;/div&gt;&lt;div&gt;UpdateProduct()&lt;/div&gt;&lt;div&gt;DeleteProduct()&lt;/div&gt;&lt;/div&gt;&lt;div&gt;CountAll()&lt;/div&gt;&lt;div&gt;&lt;br&gt;&lt;/div&gt;&lt;div&gt;GetProducts()&amp;nbsp;&lt;br&gt;GetProduct(id)&lt;br&gt;GetProduct(name)&lt;br&gt;CreateProduct()&amp;nbsp;&lt;br&gt;UpdateProduct()&lt;br&gt;DeleteProduct()&lt;br&gt;Count()&lt;br&gt;&lt;br&gt;&lt;/div&gt;" style="text;strokeColor=none;fillColor=none;align=left;verticalAlign=top;spacingLeft=4;spacingRight=4;overflow=hidden;rotatable=0;points=[[0,0.5],[1,0.5]];portConstraint=eastwest;whiteSpace=wrap;html=1;" vertex="1" parent="D7vSViKJl2pDNoAHhaiZ-14">
          <mxGeometry y="34" width="160" height="130" as="geometry" />
        </mxCell>
        <mxCell id="D7vSViKJl2pDNoAHhaiZ-20" value="Product" style="swimlane;fontStyle=1;align=center;verticalAlign=top;childLayout=stackLayout;horizontal=1;startSize=26;horizontalStack=0;resizeParent=1;resizeParentMax=0;resizeLast=0;collapsible=1;marginBottom=0;whiteSpace=wrap;html=1;" vertex="1" parent="Qgh0BV6UFdEKHunrjEFM-1">
          <mxGeometry x="410" y="430" width="160" height="210" as="geometry" />
        </mxCell>
        <mxCell id="D7vSViKJl2pDNoAHhaiZ-21" value="&lt;div&gt;Id&lt;/div&gt;&lt;div&gt;Name&lt;/div&gt;&lt;div&gt;Price&lt;/div&gt;&lt;div&gt;Description&lt;/div&gt;&lt;div&gt;BarCode&lt;/div&gt;&lt;div&gt;StartSellDate&lt;/div&gt;&lt;div&gt;IsDiscontinued&lt;/div&gt;&lt;div&gt;Category&lt;/div&gt;&lt;div&gt;StockQuantity&lt;/div&gt;&lt;div&gt;Manufacturer&lt;/div&gt;&lt;div&gt;ICMSStateTaxes&lt;/div&gt;&lt;div&gt;IPIFederalTaxes&lt;/div&gt;&lt;div&gt;&lt;br&gt;&lt;/div&gt;" style="text;strokeColor=none;fillColor=none;align=left;verticalAlign=top;spacingLeft=4;spacingRight=4;overflow=hidden;rotatable=0;points=[[0,0.5],[1,0.5]];portConstraint=eastwest;whiteSpace=wrap;html=1;" vertex="1" parent="D7vSViKJl2pDNoAHhaiZ-20">
          <mxGeometry y="26" width="160" height="184" as="geometry" />
        </mxCell>
        <mxCell id="D7vSViKJl2pDNoAHhaiZ-24" value="" style="endArrow=classic;html=1;rounded=0;entryX=0.5;entryY=0;entryDx=0;entryDy=0;" edge="1" parent="Qgh0BV6UFdEKHunrjEFM-1" source="D7vSViKJl2pDNoAHhaiZ-9" target="D7vSViKJl2pDNoAHhaiZ-10">
          <mxGeometry width="50" height="50" relative="1" as="geometry">
            <mxPoint x="360" y="390" as="sourcePoint" />
            <mxPoint x="410" y="340" as="targetPoint" />
          </mxGeometry>
        </mxCell>
        <mxCell id="D7vSViKJl2pDNoAHhaiZ-25" value="" style="endArrow=classic;html=1;rounded=0;" edge="1" parent="Qgh0BV6UFdEKHunrjEFM-1" target="D7vSViKJl2pDNoAHhaiZ-14">
          <mxGeometry width="50" height="50" relative="1" as="geometry">
            <mxPoint x="160" y="500" as="sourcePoint" />
            <mxPoint x="160" y="550" as="targetPoint" />
          </mxGeometry>
        </mxCell>
        <mxCell id="D7vSViKJl2pDNoAHhaiZ-26" value="" style="endArrow=classic;html=1;rounded=0;exitX=1;exitY=0.5;exitDx=0;exitDy=0;" edge="1" parent="Qgh0BV6UFdEKHunrjEFM-1" source="D7vSViKJl2pDNoAHhaiZ-16" target="D7vSViKJl2pDNoAHhaiZ-21">
          <mxGeometry width="50" height="50" relative="1" as="geometry">
            <mxPoint x="170" y="510" as="sourcePoint" />
            <mxPoint x="175" y="580" as="targetPoint" />
          </mxGeometry>
        </mxCell>
      </root>
    </mxGraphModel>
  </diagram>
</mxfile>
